P3
30 30
255
0 0 0
46 0 0
66 0 0
80 0 0
93 0 0
104 0 0
114 0 0
123 0 0
132 0 0
140 0 0
147 0 0
155 0 0
161 0 0
168 0 0
174 0 0
181 0 0
186 0 0
192 0 0
198 0 0
203 0 0
209 0 0
214 0 0
219 0 0
224 0 0
228 0 0
233 0 0
238 0 0
242 0 0
247 0 0
251 0 0
0 46 0
46 46 0
66 46 0
80 46 0
93 46 0
104 46 0
114 46 0
123 46 0
132 46 0
140 46 0
147 46 0
155 46 0
161 46 0
168 46 0
174 46 0
181 46 0
186 46 0
192 46 0
198 46 0
203 46 0
209 46 0
214 46 0
219 46 0
224 46 0
228 46 0
233 46 0
238 46 0
242 46 0
247 46 0
251 46 0
0 66 0
46 66 0
66 66 0
80 66 0
93 66 0
104 66 0
114 66 0
123 66 0
132 66 0
140 66 0
147 66 0
155 66 0
161 66 0
168 66 0
174 66 0
181 66 0
186 66 0
192 66 0
198 66 0
203 66 0
209 66 0
214 66 0
219 66 0
224 66 0
228 66 0
233 66 0
238 66 0
242 66 0
247 66 0
251 66 0
0 80 0
46 80 0
66 80 0
80 80 0
93 80 0
104 80 0
114 80 0
123 80 0
132 80 0
140 80 0
147 80 0
155 80 0
161 80 0
168 80 0
174 80 0
181 80 0
186 80 0
192 80 0
198 80 0
203 80 0
209 80 0
214 80 0
219 80 0
224 80 0
228 80 0
233 80 0
238 80 0
242 80 0
247 80 0
251 80 0
0 93 0
46 93 0
66 93 0
80 93 0
93 93 0
104 93 0
114 93 0
123 93 0
132 93 0
140 93 0
147 93 0
155 93 0
161 93 0
168 93 0
174 93 0
181 93 0
186 93 0
192 93 0
198 93 0
203 93 0
209 93 0
214 93 0
219 93 0
224 93 0
228 93 0
233 93 0
238 93 0
242 93 0
247 93 0
251 93 0
0 104 0
46 104 0
66 104 0
80 104 0
93 104 0
104 104 0
114 104 0
123 104 0
132 104 0
140 104 0
147 104 0
155 104 0
161 104 0
168 104 0
174 104 0
181 104 0
186 104 0
192 104 0
198 104 0
203 104 0
209 104 0
214 104 0
219 104 0
224 104 0
228 104 0
233 104 0
238 104 0
242 104 0
247 104 0
251 104 0
0 114 0
46 114 0
66 114 0
80 114 0
93 114 0
104 114 0
114 114 0
123 114 0
132 114 0
140 114 0
147 114 0
155 114 0
161 114 0
168 114 0
174 114 0
181 114 0
186 114 0
192 114 0
198 114 0
203 114 0
209 114 0
214 114 0
219 114 0
224 114 0
228 114 0
233 114 0
238 114 0
242 114 0
247 114 0
251 114 0
0 123 0
46 123 0
66 123 0
80 123 0
93 123 0
104 123 0
114 123 0
123 123 0
132 123 0
140 123 0
147 123 0
155 123 0
161 123 0
168 123 0
174 123 0
181 123 0
186 123 0
192 123 0
198 123 0
203 123 0
209 123 0
214 123 0
219 123 0
224 123 0
228 123 0
233 123 0
238 123 0
242 123 0
247 123 0
251 123 0
0 132 0
46 132 0
66 132 0
80 132 0
93 132 0
104 132 0
114 132 0
123 132 0
132 132 0
140 132 0
147 132 0
155 132 0
161 132 0
168 132 0
174 132 0
181 132 0
186 132 0
192 132 0
198 132 0
203 132 0
209 132 0
214 132 0
219 132 0
224 132 0
228 132 0
233 132 0
238 132 0
242 132 0
247 132 0
251 132 0
0 140 0
46 140 0
66 140 0
80 140 0
93 140 0
104 140 0
114 140 0
123 140 0
132 140 0
140 140 0
147 140 0
155 140 0
161 140 0
168 140 0
174 140 0
181 140 0
186 140 0
192 140 0
198 140 0
203 140 0
209 140 0
214 140 0
219 140 0
224 140 0
228 140 0
233 140 0
238 140 0
242 140 0
247 140 0
251 140 0
0 147 0
46 147 0
66 147 0
80 147 0
93 147 0
104 147 0
114 147 0
123 147 0
132 147 0
140 147 0
147 147 0
155 147 0
161 147 0
168 147 0
174 147 0
181 147 0
186 147 0
192 147 0
198 147 0
203 147 0
209 147 0
214 147 0
219 147 0
224 147 0
228 147 0
233 147 0
238 147 0
242 147 0
247 147 0
251 147 0
0 155 0
46 155 0
66 155 0
80 155 0
93 155 0
104 155 0
114 155 0
123 155 0
132 155 0
140 155 0
147 155 0
155 155 0
161 155 0
168 155 0
174 155 0
181 155 0
186 155 0
192 155 0
198 155 0
203 155 0
209 155 0
214 155 0
219 155 0
224 155 0
228 155 0
233 155 0
238 155 0
242 155 0
247 155 0
251 155 0
0 161 0
46 161 0
66 161 0
80 161 0
93 161 0
104 161 0
114 161 0
123 161 0
132 161 0
140 161 0
147 161 0
155 161 0
161 161 0
168 161 0
174 161 0
181 161 0
186 161 0
192 161 0
198 161 0
203 161 0
209 161 0
214 161 0
219 161 0
224 161 0
228 161 0
233 161 0
238 161 0
242 161 0
247 161 0
251 161 0
0 168 0
46 168 0
66 168 0
80 168 0
93 168 0
104 168 0
114 168 0
123 168 0
132 168 0
140 168 0
147 168 0
155 168 0
161 168 0
168 168 0
174 168 0
181 168 0
186 168 0
192 168 0
198 168 0
203 168 0
209 168 0
214 168 0
219 168 0
224 168 0
228 168 0
233 168 0
238 168 0
242 168 0
247 168 0
251 168 0
0 174 0
46 174 0
66 174 0
80 174 0
93 174 0
104 174 0
114 174 0
123 174 0
132 174 0
140 174 0
147 174 0
155 174 0
161 174 0
168 174 0
174 174 0
181 174 0
186 174 0
192 174 0
198 174 0
203 174 0
209 174 0
214 174 0
219 174 0
224 174 0
228 174 0
233 174 0
238 174 0
242 174 0
247 174 0
251 174 0
0 181 0
46 181 0
66 181 0
80 181 0
93 181 0
104 181 0
114 181 0
123 181 0
132 181 0
140 181 0
147 181 0
155 181 0
161 181 0
168 181 0
174 181 0
181 181 0
186 181 0
192 181 0
198 181 0
203 181 0
209 181 0
214 181 0
219 181 0
224 181 0
228 181 0
233 181 0
238 181 0
242 181 0
247 181 0
251 181 0
0 186 0
46 186 0
66 186 0
80 186 0
93 186 0
104 186 0
114 186 0
123 186 0
132 186 0
140 186 0
147 186 0
155 186 0
161 186 0
168 186 0
174 186 0
181 186 0
186 186 0
192 186 0
198 186 0
203 186 0
209 186 0
214 186 0
219 186 0
224 186 0
228 186 0
233 186 0
238 186 0
242 186 0
247 186 0
251 186 0
0 192 0
46 192 0
66 192 0
80 192 0
93 192 0
104 192 0
114 192 0
123 192 0
132 192 0
140 192 0
147 192 0
155 192 0
161 192 0
168 192 0
174 192 0
181 192 0
186 192 0
192 192 0
198 192 0
203 192 0
209 192 0
214 192 0
219 192 0
224 192 0
228 192 0
233 192 0
238 192 0
242 192 0
247 192 0
251 192 0
0 198 0
46 198 0
66 198 0
80 198 0
93 198 0
104 198 0
114 198 0
123 198 0
132 198 0
140 198 0
147 198 0
155 198 0
161 198 0
168 198 0
174 198 0
181 198 0
186 198 0
192 198 0
198 198 0
203 198 0
209 198 0
214 198 0
219 198 0
224 198 0
228 198 0
233 198 0
238 198 0
242 198 0
247 198 0
251 198 0
0 203 0
46 203 0
66 203 0
80 203 0
93 203 0
104 203 0
114 203 0
123 203 0
132 203 0
140 203 0
147 203 0
155 203 0
161 203 0
168 203 0
174 203 0
181 203 0
186 203 0
192 203 0
198 203 0
203 203 0
209 203 0
214 203 0
219 203 0
224 203 0
228 203 0
233 203 0
238 203 0
242 203 0
247 203 0
251 203 0
0 209 0
46 209 0
66 209 0
80 209 0
93 209 0
104 209 0
114 209 0
123 209 0
132 209 0
140 209 0
147 209 0
155 209 0
161 209 0
168 209 0
174 209 0
181 209 0
186 209 0
192 209 0
198 209 0
203 209 0
209 209 0
214 209 0
219 209 0
224 209 0
228 209 0
233 209 0
238 209 0
242 209 0
247 209 0
251 209 0
0 214 0
46 214 0
66 214 0
80 214 0
93 214 0
104 214 0
114 214 0
123 214 0
132 214 0
140 214 0
147 214 0
155 214 0
161 214 0
168 214 0
174 214 0
181 214 0
186 214 0
192 214 0
198 214 0
203 214 0
209 214 0
214 214 0
219 214 0
224 214 0
228 214 0
233 214 0
238 214 0
242 214 0
247 214 0
251 214 0
0 219 0
46 219 0
66 219 0
80 219 0
93 219 0
104 219 0
114 219 0
123 219 0
132 219 0
140 219 0
147 219 0
155 219 0
161 219 0
168 219 0
174 219 0
181 219 0
186 219 0
192 219 0
198 219 0
203 219 0
209 219 0
214 219 0
219 219 0
224 219 0
228 219 0
233 219 0
238 219 0
242 219 0
247 219 0
251 219 0
0 224 0
46 224 0
66 224 0
80 224 0
93 224 0
104 224 0
114 224 0
123 224 0
132 224 0
140 224 0
147 224 0
155 224 0
161 224 0
168 224 0
174 224 0
181 224 0
186 224 0
192 224 0
198 224 0
203 224 0
209 224 0
214 224 0
219 224 0
224 224 0
228 224 0
233 224 0
238 224 0
242 224 0
247 224 0
251 224 0
0 228 0
46 228 0
66 228 0
80 228 0
93 228 0
104 228 0
114 228 0
123 228 0
132 228 0
140 228 0
147 228 0
155 228 0
161 228 0
168 228 0
174 228 0
181 228 0
186 228 0
192 228 0
198 228 0
203 228 0
209 228 0
214 228 0
219 228 0
224 228 0
228 228 0
233 228 0
238 228 0
242 228 0
247 228 0
251 228 0
0 233 0
46 233 0
66 233 0
80 233 0
93 233 0
104 233 0
114 233 0
123 233 0
132 233 0
140 233 0
147 233 0
155 233 0
161 233 0
168 233 0
174 233 0
181 233 0
186 233 0
192 233 0
198 233 0
203 233 0
209 233 0
214 233 0
219 233 0
224 233 0
228 233 0
233 233 0
238 233 0
242 233 0
247 233 0
251 233 0
0 238 0
46 238 0
66 238 0
80 238 0
93 238 0
104 238 0
114 238 0
123 238 0
132 238 0
140 238 0
147 238 0
155 238 0
161 238 0
168 238 0
174 238 0
181 238 0
186 238 0
192 238 0
198 238 0
203 238 0
209 238 0
214 238 0
219 238 0
224 238 0
228 238 0
233 238 0
238 238 0
242 238 0
247 238 0
251 238 0
0 242 0
46 242 0
66 242 0
80 242 0
93 242 0
104 242 0
114 242 0
123 242 0
132 242 0
140 242 0
147 242 0
155 242 0
161 242 0
168 242 0
174 242 0
181 242 0
186 242 0
192 242 0
198 242 0
203 242 0
209 242 0
214 242 0
219 242 0
224 242 0
228 242 0
233 242 0
238 242 0
242 242 0
247 242 0
251 242 0
0 247 0
46 247 0
66 247 0
80 247 0
93 247 0
104 247 0
114 247 0
123 247 0
132 247 0
140 247 0
147 247 0
155 247 0
161 247 0
168 247 0
174 247 0
181 247 0
186 247 0
192 247 0
198 247 0
203 247 0
209 247 0
214 247 0
219 247 0
224 247 0
228 247 0
233 247 0
238 247 0
242 247 0
247 247 0
251 247 0
0 251 0
46 251 0
66 251 0
80 251 0
93 251 0
104 251 0
114 251 0
123 251 0
132 251 0
140 251 0
147 251 0
155 251 0
161 251 0
168 251 0
174 251 0
181 251 0
186 251 0
192 251 0
198 251 0
203 251 0
209 251 0
214 251 0
219 251 0
224 251 0
228 251 0
233 251 0
238 251 0
242 251 0
247 251 0
251 251 0
